HIERARCHY
ROOT Hips
{
	OFFSET -3.958830 18.904000 13.208200
	CHANNELS 6 Xposition Yposition Zposition Zrotation Yrotation Xrotation 
	JOINT LHipJoint
	{
		OFFSET 0.000000 0.000000 0.000000
		CHANNELS 3 Zrotation Yrotation Xrotation
		JOINT LeftUpLeg
		{
			OFFSET 1.800000 -1.400000 0.085000
			CHANNELS 3 Zrotation Yrotation Xrotation
			JOINT LeftLeg
			{
				OFFSET 2.215000 -6.000000 0.000000
				CHANNELS 3 Zrotation Yrotation Xrotation
				JOINT LeftFoot
				{
					OFFSET 2.500000 -6.900000 0.000000
					CHANNELS 3 Zrotation Yrotation Xrotation
					JOINT LeftToeBase
					{
						OFFSET 0.200000 -0.500000 1.950000
						CHANNELS 3 Zrotation Yrotation Xrotation
						End Site
						{
							OFFSET 0.000000 0.000000 0.000000
						}
					}
				}
			}
		}
	}
	JOINT RHipJoint
	{
		OFFSET 0.000000 0.000000 0.000000
		CHANNELS 3 Zrotation Yrotation Xrotation
		JOINT RightUpLeg
		{
			OFFSET -1.800000 -1.400000 0.085000
			CHANNELS 3 Zrotation Yrotation Xrotation
			JOINT RightLeg
			{
				OFFSET -2.215000 -6.000000 0.000000
				CHANNELS 3 Zrotation Yrotation Xrotation
				JOINT RightFoot
				{
					OFFSET -2.500000 -6.900000 0.000000
					CHANNELS 3 Zrotation Yrotation Xrotation
					JOINT RightToeBase
					{
						OFFSET -0.200000 -0.500000 1.950000
						CHANNELS 3 Zrotation Yrotation Xrotation
						End Site
						{
							OFFSET 0.000000 0.000000 0.000000
						}
					}
				}
			}
		}
	}
	JOINT LowerBack
	{
		OFFSET 0.000000 0.000000 0.000000
		CHANNELS 3 Zrotation Yrotation Xrotation
		JOINT Spine
		{
			OFFSET -0.087000 1.940000 -0.288900
			CHANNELS 3 Zrotation Yrotation Xrotation
			JOINT Spine1
			{
				OFFSET 0.000000 1.950000 0.060000
				CHANNELS 3 Zrotation Yrotation Xrotation
				JOINT Neck
				{
					OFFSET 0.000000 0.000000 0.000000
					CHANNELS 3 Zrotation Yrotation Xrotation
					JOINT Neck1
					{
						OFFSET 0.000000 1.600000 0.340000
						CHANNELS 3 Zrotation Yrotation Xrotation
						JOINT Head
						{
							OFFSET 0.000000 1.667000 -0.240000
							CHANNELS 3 Zrotation Yrotation Xrotation
							End Site
							{
								OFFSET 0.000000 0.000000 0.000000
							}
						}
					}
				}
				JOINT LeftShoulder
				{
					OFFSET 0.000000 0.000000 0.000000
					CHANNELS 3 Zrotation Yrotation Xrotation
					JOINT LeftArm
					{
						OFFSET 2.700000 1.550000 -0.730000
						CHANNELS 3 Zrotation Yrotation Xrotation
						JOINT LeftForeArm
						{
							OFFSET 5.450000 0.000000 0.000000
							CHANNELS 3 Zrotation Yrotation Xrotation
							JOINT LeftHand
							{
								OFFSET 3.450000 0.000000 0.000000
								CHANNELS 3 Zrotation Yrotation Xrotation
								JOINT LeftHandIndex1
								{
									OFFSET 0.750000 0.000000 0.000000
									CHANNELS 3 Zrotation Yrotation Xrotation
									End Site
									{
										OFFSET 0.000000 0.000000 0.000000
									}
								}
							}
						}
					}
				}
				JOINT RightShoulder
				{
					OFFSET 0.000000 0.000000 0.000000
					CHANNELS 3 Zrotation Yrotation Xrotation
					JOINT RightArm
					{
						OFFSET -2.700000 1.550000 -0.730000
						CHANNELS 3 Zrotation Yrotation Xrotation
						JOINT RightForeArm
						{
							OFFSET -5.450000 0.000000 0.000000
							CHANNELS 3 Zrotation Yrotation Xrotation
							JOINT RightHand
							{
								OFFSET -3.450000 0.000000 0.000000
								CHANNELS 3 Zrotation Yrotation Xrotation
								JOINT RightHandIndex1
								{
									OFFSET -0.750000 0.000000 0.000000
									CHANNELS 3 Zrotation Yrotation Xrotation
									End Site
									{
										OFFSET 0.000000 0.000000 0.000000
									}
								}
							}
						}
					}
				}
			}
		}
	}
}
MOTION
Frames: 14
Frame Time: 0.016667
0.204970 17.078300 -1.375790 -0.965438 56.402265 1.244174 -15.638385 10.653505 5.627642 14.580763 -10.021109 -40.177476 -24.502504 20.281483 43.448743 0.406349 11.383166 0.759044 0.433100 -0.104460 0.213250 18.106131 -10.033944 2.184634 -24.965204 0.985201 -24.263986 12.358811 -10.288936 25.184295 -0.190424 -5.229657 2.653532 0.193250 0.415510 -0.047080 -3.700859 -0.210756 -8.858291 9.926085 1.631154 22.369721 -2.040904 5.102119 8.360423 2.689838 4.211366 -9.947563 5.817445 -24.289308 26.068143 7.617930 -23.159950 -15.848140 -15.328496 -9.712486 4.433764 -24.502183 -2.919634 -2.422001 149.626589 -61.913175 -142.610385 -3.671532 3.043968 0.701600 0.092830 -0.347480 0.228870 9.378714 9.601992 6.924381 7.645473 -4.542467 -3.875566 22.930732 40.163277 7.117703 1.651024 -1.487502 -0.512930 0.593230 0.132070 -0.337730 
0.162670 17.011410 -1.394350 -0.029267 56.507247 1.001350 -15.643943 10.320155 6.031096 18.158788 -9.720305 -41.865587 -29.066893 23.162541 44.053545 0.673426 12.283790 0.492391 0.421830 -0.108830 0.218970 18.165164 -9.923564 2.025875 -25.641649 0.859176 -23.981934 11.921887 -11.004903 27.454767 -0.259253 -5.497617 2.557254 0.171870 0.397200 -0.061870 -3.814947 -0.081485 -9.099073 11.589730 0.629294 24.931283 -4.596772 5.266154 8.374622 3.188437 3.497572 -10.059830 4.417607 -24.530495 26.714593 9.688180 -23.206630 -18.067260 -16.005315 -9.358699 4.216277 -28.437659 -4.464688 -2.212213 153.365285 -57.768154 -146.500334 -3.630128 3.006316 0.745490 0.054180 -0.309290 0.219870 8.892557 9.652479 7.565367 8.887142 -7.626512 -4.801426 30.682447 44.619731 10.113912 1.664539 -1.529587 -0.516410 0.611240 0.128870 -0.338500 
0.130450 16.919050 -1.406380 0.807425 56.538214 1.066536 -15.655101 9.993351 6.367827 21.712405 -9.089050 -43.262430 -32.744186 25.792069 44.609138 0.872139 13.023382 0.278439 0.424670 -0.111550 0.242440 18.230296 -9.778014 1.920365 -26.679245 0.652639 -24.000038 11.806700 -11.776853 29.355148 -0.322895 -5.805676 2.429688 0.170210 0.377020 -0.070170 -3.895048 0.037990 -9.304253 12.725009 -0.404105 26.448731 -6.654351 5.084804 8.392997 3.741272 3.070074 -10.084846 3.543279 -24.650950 27.223660 10.238370 -22.951080 -18.898650 -17.125048 -9.042339 4.108792 -31.995478 -5.321434 -1.721554 155.653480 -53.248725 -147.972461 -3.613788 2.980742 0.776650 0.029430 -0.287910 0.210530 8.815788 9.478864 7.931121 9.736212 -9.675620 -5.411433 38.500731 48.810464 13.787084 1.685458 -1.589271 -0.527860 0.615930 0.122520 -0.351340 
0.118480 16.798690 -1.403610 1.339160 56.684388 1.277779 -15.662515 9.686091 6.636041 25.173072 -8.194823 -44.292877 -35.173369 28.028661 45.332136 1.021436 13.587708 0.128400 0.458130 -0.073480 0.252350 18.305489 -9.676768 1.804893 -27.575926 0.282698 -24.272142 11.163639 -12.501353 31.505508 -0.386472 -6.138999 2.314431 0.194560 0.379650 -0.065450 -4.027357 0.216141 -9.452214 13.947750 -1.542140 26.657559 -8.648291 4.528259 8.378460 4.238529 2.761789 -9.760143 3.022818 -24.441542 27.225437 10.302790 -22.479010 -18.973210 -18.565142 -8.290988 3.732253 -34.465277 -5.783881 -1.015987 157.796955 -49.593635 -149.528515 -3.607818 2.999742 0.777360 0.031340 -0.283490 0.233330 9.192915 8.506115 7.975000 10.433440 -11.273787 -5.624007 49.252479 53.477366 19.618610 1.715931 -1.682738 -0.523750 0.617330 0.101020 -0.348320 
0.111200 16.682800 -1.401790 1.570170 56.109003 0.730638 -15.651335 9.533654 6.763168 28.249518 -7.010622 -43.859341 -35.707789 29.702318 46.580920 1.096064 13.990607 0.009335 0.492210 -0.039980 0.296030 18.370155 -9.653150 1.709605 -28.249793 -0.002810 -24.561084 9.967524 -13.033894 34.037060 -0.458571 -6.432421 2.203218 0.215780 0.364480 -0.068980 -4.181180 0.371704 -9.542321 15.467168 -2.879556 27.493181 -10.709108 3.847789 8.164854 4.697454 2.249839 -9.318924 2.087905 -23.820216 27.578842 10.420460 -21.570790 -20.057750 -20.386266 -7.660423 3.224779 -35.467590 -5.634559 -0.902323 158.943166 -46.260222 -149.591257 -3.597613 2.984088 0.802470 0.014760 -0.261860 0.234220 10.027121 7.752070 7.965787 10.949476 -11.999858 -5.836960 60.050063 57.866577 26.597951 1.790074 -1.692758 -0.529130 0.630850 0.079880 -0.360170 
0.123150 16.548860 -1.398470 1.836596 55.675901 0.693807 -15.636860 9.364790 6.801654 30.844721 -5.952899 -43.448932 -34.485695 31.134887 48.986185 1.150603 14.416432 -0.123196 0.523590 -0.018050 0.318980 18.452665 -9.561270 1.709950 -29.579056 -0.428630 -25.397760 9.350166 -13.951046 36.630600 -0.542202 -6.880319 2.023334 0.239470 0.366240 -0.044840 -4.340034 0.501525 -9.630262 17.067097 -4.003755 27.125739 -12.423129 3.070994 7.844277 5.055796 1.517401 -8.680246 0.950249 -23.169042 27.469687 9.711190 -21.037900 -19.970560 -22.076773 -6.678360 2.524878 -35.797348 -5.436807 -0.657384 160.002228 -43.933094 -149.894342 -3.605635 3.024536 0.799500 0.019620 -0.261040 0.238720 10.934417 6.747475 7.767332 10.722316 -12.307692 -5.493748 73.430603 60.068729 35.047864 1.900125 -1.684617 -0.522340 0.621750 0.076400 -0.362180 
0.137980 16.413420 -1.387120 2.088192 54.632508 0.567452 -15.618401 9.348280 6.701756 33.058110 -4.669218 -41.803451 -32.066287 31.790079 51.098200 1.155497 14.632937 -0.199861 0.534310 0.006310 0.314650 18.518782 -9.467872 1.768480 -30.603162 -0.715218 -26.652501 8.497443 -14.738645 39.492167 -0.623231 -7.316172 1.876711 0.258500 0.377490 -0.038720 -4.427969 0.491664 -9.668038 18.021894 -4.835533 26.682738 -13.511044 2.255204 7.459392 5.275982 0.579129 -8.061581 -0.515288 -21.801161 27.472832 9.014390 -20.188320 -19.950860 -23.587028 -5.575040 2.009839 -37.027104 -4.602061 -1.018060 159.701180 -41.869553 -147.804678 -3.625270 3.024012 0.787590 0.032950 -0.264360 0.243580 11.961096 5.890273 7.324872 10.319021 -12.377223 -5.506221 88.579070 60.840875 45.311181 2.015004 -1.605680 -0.519380 0.627850 0.076590 -0.355730 
0.151330 16.292330 -1.377390 1.780087 53.081624 -0.838015 -15.588878 9.560019 6.444907 34.980564 -3.313158 -38.316649 -28.595369 31.324475 52.608418 1.115265 14.564879 -0.210391 0.574880 0.045570 0.360130 18.541982 -9.509157 1.823784 -30.751923 -0.669570 -27.503272 7.083052 -15.003938 42.425643 -0.726514 -7.623445 1.778812 0.259970 0.332890 -0.024110 -4.492731 0.457516 -9.632346 18.980063 -5.765010 27.450206 -14.479311 1.422774 6.863226 5.527859 -0.176067 -7.829809 -1.831550 -20.114674 28.154418 8.841290 -18.920310 -21.014800 -24.595990 -5.101398 1.911642 -38.163627 -3.352091 -2.220455 158.440165 -40.440491 -144.520772 -3.599710 3.023300 0.811530 0.006730 -0.223240 0.249630 12.417475 5.840451 7.050497 10.757564 -11.730658 -6.195000 101.709873 60.004981 54.986437 2.047888 -1.574142 -0.492800 0.600960 0.039090 -0.365750 
0.166280 16.180690 -1.371460 1.029248 51.018424 -2.842962 -15.553766 9.959015 6.021548 36.490824 -1.978570 -33.684475 -24.321737 29.774358 53.206789 1.060564 14.217215 -0.123144 0.599410 0.072410 0.400480 18.536268 -9.594531 1.933057 -30.360544 -0.342219 -28.497004 5.625880 -14.975020 45.284990 -0.821892 -7.877931 1.714484 0.238630 0.288100 -0.013730 -4.518254 0.314427 -9.538066 19.813441 -6.538402 28.410090 -14.888712 0.617443 6.279151 5.645156 -0.910633 -7.950702 -3.213982 -18.021170 29.175416 8.463560 -17.584830 -21.317740 -25.294957 -5.294813 2.223928 -38.928953 -2.105438 -3.766523 156.457928 -39.886836 -140.457541 -3.571828 3.013125 0.814120 -0.017680 -0.181300 0.263260 12.849260 6.601370 6.952418 10.526486 -10.684687 -6.684411 112.112821 58.837267 63.763633 2.042604 -1.603894 -0.454140 0.560810 -0.016210 -0.362610 
0.188330 16.069930 -1.372490 -0.087124 48.877192 -4.797736 -15.520693 10.417553 5.541314 37.917513 -0.852214 -29.131346 -19.735363 27.689298 53.316139 0.980623 13.754671 0.006634 0.579490 0.053510 0.399940 18.519954 -9.690204 2.048096 -29.517068 -0.008929 -29.439042 4.427786 -14.776748 47.366127 -0.878442 -8.036198 1.687061 0.194540 0.276000 -0.004100 -4.531963 0.109882 -9.410580 20.601200 -7.288446 28.656675 -14.963901 -0.309924 6.051936 5.730620 -1.457541 -8.321748 -4.307779 -15.370237 30.415645 8.122520 -15.985140 -20.873040 -25.210833 -5.697583 2.811235 -40.031013 -1.033021 -5.242196 153.803572 -39.772133 -135.337898 -3.574282 2.981388 0.809240 -0.021740 -0.163490 0.268030 12.619905 7.415018 6.917420 10.888201 -8.821770 -6.935298 119.774245 58.066282 71.269355 2.027549 -1.615803 -0.431670 0.526850 -0.038300 -0.354850 
0.219890 15.958710 -1.376440 -1.487350 46.501415 -6.544430 -15.493938 10.876747 5.026409 39.360740 0.177924 -24.681576 -15.194906 25.518240 53.008938 0.906625 13.220323 0.161473 0.594280 0.070980 0.421300 18.501448 -9.728257 2.229083 -28.560912 0.375495 -30.844312 3.654638 -14.767964 49.369713 -0.948097 -8.244098 1.644630 0.172520 0.243000 0.016150 -4.499408 -0.137633 -9.286373 21.404981 -7.637488 27.990174 -14.569492 -0.961282 6.121624 6.030417 -1.603277 -8.750308 -4.620183 -13.247627 31.416083 6.727700 -14.370890 -19.905690 -24.594583 -5.921453 3.348295 -41.124996 -0.325066 -6.304814 150.495549 -41.016243 -129.949206 -3.568289 2.979722 0.790000 -0.021280 -0.141790 0.281490 11.465237 7.885683 6.888487 11.548941 -6.713011 -6.864749 125.954717 57.787434 78.457098 2.001793 -1.645751 -0.390150 0.471890 -0.080820 -0.351330 
0.258970 15.841370 -1.383490 -2.943150 44.322300 -7.893963 -15.469563 11.355359 4.438511 40.206147 0.918532 -20.703087 -10.119323 22.843575 52.513760 0.818308 12.542803 0.358318 0.673720 0.169910 0.490140 18.477060 -9.761246 2.457475 -27.743410 0.679018 -32.555871 2.954446 -14.814978 51.306469 -1.037469 -8.482541 1.576277 0.198460 0.177580 0.048640 -4.459519 -0.393342 -9.135044 22.152364 -7.618044 26.484598 -13.719884 -1.418037 6.386738 6.426143 -1.320661 -8.799506 -4.040065 -11.884623 31.755344 4.153890 -12.597450 -19.011370 -24.465630 -6.017404 3.673708 -41.269336 -0.115338 -6.690299 146.914903 -42.288488 -123.664272 -3.546690 3.009154 0.750230 -0.023580 -0.099890 0.309130 10.644767 7.814526 6.465515 11.867507 -4.698492 -6.740404 132.493883 58.491438 88.303839 1.960893 -1.692390 -0.319090 0.397080 -0.166650 -0.344410 
0.293290 15.747800 -1.405200 -4.484153 42.124281 -9.778878 -15.447746 11.892324 3.841352 40.873434 1.187778 -16.171966 -5.634467 20.059855 51.014260 0.709817 11.799541 0.585222 0.740910 0.263500 0.549860 18.427997 -9.813340 2.678416 -26.896452 0.874933 -33.809597 2.551482 -14.989635 53.158627 -1.129884 -8.747330 1.498997 0.234050 0.125180 0.072780 -4.381145 -0.723066 -8.970353 22.442245 -7.742883 25.511095 -12.346738 -2.097958 6.598927 6.905467 -0.840670 -8.466952 -3.132915 -10.405886 32.659630 1.505590 -10.591320 -18.476530 -24.624963 -5.968776 3.837826 -40.491180 -0.356767 -6.562218 142.515124 -44.415556 -116.850052 -3.552715 2.991193 0.716960 -0.018520 -0.062520 0.328230 10.062597 7.413490 5.448610 11.855420 -1.542636 -6.798039 136.825557 60.544702 98.027571 1.909657 -1.660125 -0.267080 0.348310 -0.232930 -0.342070 
0.316390 15.668190 -1.436160 -5.351370 40.636825 -11.453074 -15.421125 12.352253 3.299171 40.943961 0.889698 -11.770204 -2.247895 17.582890 48.885313 0.636509 11.080688 0.820141 0.803950 0.352840 0.599980 18.384066 -9.862292 2.885377 -26.910015 0.642769 -34.581802 2.819013 -15.548452 54.583167 -1.232072 -9.023358 1.417091 0.257830 0.073470 0.087530 -4.343176 -1.040672 -8.832105 21.804585 -7.975149 24.534266 -10.753077 -3.088655 7.515492 6.871574 -0.324748 -8.329686 -2.376647 -8.684378 34.752458 0.790310 -8.882180 -18.721530 -24.153203 -6.931575 4.443457 -39.229614 -0.921694 -6.807208 136.619213 -46.239646 -108.372878 -3.541038 2.910706 0.701860 -0.036370 -0.012850 0.349260 10.033004 7.831205 4.441772 12.719564 2.058813 -7.416511 137.676000 63.743369 104.251265 1.886822 -1.510492 -0.213570 0.312690 -0.296640 -0.331290 
